<mxfile host="Electron" agent="Mozilla/5.0 (Windows NT 10.0; Win64; x64) AppleWebKit/537.36 (KHTML, like Gecko) draw.io/26.0.9 Chrome/128.0.6613.186 Electron/32.2.5 Safari/537.36" version="26.0.9">
  <diagram name="Page-1" id="MKnoHdxUgCLEVTKoF1F5">
    <mxGraphModel dx="1715" dy="731" grid="1" gridSize="10" guides="1" tooltips="1" connect="1" arrows="1" fold="1" page="1" pageScale="1" pageWidth="827" pageHeight="1169" math="0" shadow="0">
      <root>
        <mxCell id="0" />
        <mxCell id="1" parent="0" />
        <mxCell id="ypoV57Aznd-EOf7QVUVt-1" value="3.124; 5.234; 123.102; -124.39" style="rounded=0;whiteSpace=wrap;html=1;fontSize=18;fontStyle=1;fillColor=#d80073;fontColor=#ffffff;strokeColor=#A50040;" parent="1" vertex="1">
          <mxGeometry x="160" y="200" width="560" height="60" as="geometry" />
        </mxCell>
        <mxCell id="ypoV57Aznd-EOf7QVUVt-2" value="Input" style="rounded=0;whiteSpace=wrap;html=1;fontStyle=1;fontSize=18;fillColor=#d80073;fontColor=#ffffff;strokeColor=#A50040;" parent="1" vertex="1">
          <mxGeometry x="40" y="200" width="120" height="60" as="geometry" />
        </mxCell>
        <mxCell id="ypoV57Aznd-EOf7QVUVt-3" value="Tokens" style="rounded=0;whiteSpace=wrap;html=1;fontStyle=1;fontSize=18;fillColor=#0050ef;fontColor=#ffffff;strokeColor=#001DBC;" parent="1" vertex="1">
          <mxGeometry x="40" y="260" width="120" height="60" as="geometry" />
        </mxCell>
        <mxCell id="ypoV57Aznd-EOf7QVUVt-5" value="3" style="rounded=0;whiteSpace=wrap;html=1;fontSize=18;fontStyle=1;fillColor=#0050ef;strokeColor=#001DBC;fontColor=#ffffff;" parent="1" vertex="1">
          <mxGeometry x="160" y="260" width="40" height="60" as="geometry" />
        </mxCell>
        <mxCell id="ypoV57Aznd-EOf7QVUVt-6" value="124" style="rounded=0;whiteSpace=wrap;html=1;fontSize=18;fontStyle=1;fillColor=#0050ef;strokeColor=#001DBC;fontColor=#ffffff;" parent="1" vertex="1">
          <mxGeometry x="200" y="260" width="40" height="60" as="geometry" />
        </mxCell>
        <mxCell id="ypoV57Aznd-EOf7QVUVt-7" value="0" style="rounded=0;whiteSpace=wrap;html=1;fontSize=18;fontStyle=1;fillColor=#1ba1e2;strokeColor=#006EAF;fontColor=#ffffff;" parent="1" vertex="1">
          <mxGeometry x="240" y="260" width="40" height="60" as="geometry" />
        </mxCell>
        <mxCell id="ypoV57Aznd-EOf7QVUVt-8" value="5" style="rounded=0;whiteSpace=wrap;html=1;fontSize=18;fontStyle=1;fillColor=#0050ef;strokeColor=#001DBC;fontColor=#ffffff;" parent="1" vertex="1">
          <mxGeometry x="280" y="260" width="40" height="60" as="geometry" />
        </mxCell>
        <mxCell id="ypoV57Aznd-EOf7QVUVt-9" value="234" style="rounded=0;whiteSpace=wrap;html=1;fontSize=18;fontStyle=1;fillColor=#0050ef;strokeColor=#001DBC;fontColor=#ffffff;" parent="1" vertex="1">
          <mxGeometry x="320" y="260" width="40" height="60" as="geometry" />
        </mxCell>
        <mxCell id="ypoV57Aznd-EOf7QVUVt-10" value="0" style="rounded=0;whiteSpace=wrap;html=1;fontSize=18;fontStyle=1;fillColor=#1ba1e2;strokeColor=#006EAF;fontColor=#ffffff;" parent="1" vertex="1">
          <mxGeometry x="360" y="260" width="40" height="60" as="geometry" />
        </mxCell>
        <mxCell id="ypoV57Aznd-EOf7QVUVt-11" value="5" style="rounded=0;whiteSpace=wrap;html=1;fontSize=18;fontStyle=1;fillColor=#0050ef;strokeColor=#001DBC;fontColor=#ffffff;" parent="1" vertex="1">
          <mxGeometry x="400" y="260" width="40" height="60" as="geometry" />
        </mxCell>
        <mxCell id="ypoV57Aznd-EOf7QVUVt-12" value="234" style="rounded=0;whiteSpace=wrap;html=1;fontSize=18;fontStyle=1;fillColor=#0050ef;strokeColor=#001DBC;fontColor=#ffffff;" parent="1" vertex="1">
          <mxGeometry x="440" y="260" width="40" height="60" as="geometry" />
        </mxCell>
        <mxCell id="ypoV57Aznd-EOf7QVUVt-15" value="0" style="rounded=0;whiteSpace=wrap;html=1;fontSize=18;fontStyle=1;fillColor=#1ba1e2;strokeColor=#006EAF;fontColor=#ffffff;" parent="1" vertex="1">
          <mxGeometry x="480" y="260" width="40" height="60" as="geometry" />
        </mxCell>
        <mxCell id="ypoV57Aznd-EOf7QVUVt-16" value="123" style="rounded=0;whiteSpace=wrap;html=1;fontSize=18;fontStyle=1;fillColor=#0050ef;strokeColor=#001DBC;fontColor=#ffffff;" parent="1" vertex="1">
          <mxGeometry x="520" y="260" width="40" height="60" as="geometry" />
        </mxCell>
        <mxCell id="ypoV57Aznd-EOf7QVUVt-17" value="102" style="rounded=0;whiteSpace=wrap;html=1;fontSize=18;fontStyle=1;fillColor=#0050ef;strokeColor=#001DBC;fontColor=#ffffff;" parent="1" vertex="1">
          <mxGeometry x="560" y="260" width="40" height="60" as="geometry" />
        </mxCell>
        <mxCell id="ypoV57Aznd-EOf7QVUVt-18" value="0" style="rounded=0;whiteSpace=wrap;html=1;fontSize=18;fontStyle=1;fillColor=#1ba1e2;strokeColor=#006EAF;fontColor=#ffffff;" parent="1" vertex="1">
          <mxGeometry x="600" y="260" width="40" height="60" as="geometry" />
        </mxCell>
        <mxCell id="ypoV57Aznd-EOf7QVUVt-19" value="-124" style="rounded=0;whiteSpace=wrap;html=1;fontSize=18;fontStyle=1;fillColor=#0050ef;strokeColor=#001DBC;fontColor=#ffffff;" parent="1" vertex="1">
          <mxGeometry x="640" y="260" width="40" height="60" as="geometry" />
        </mxCell>
        <mxCell id="ypoV57Aznd-EOf7QVUVt-20" value="39" style="rounded=0;whiteSpace=wrap;html=1;fontSize=18;fontStyle=1;fillColor=#0050ef;strokeColor=#001DBC;fontColor=#ffffff;" parent="1" vertex="1">
          <mxGeometry x="680" y="260" width="40" height="60" as="geometry" />
        </mxCell>
        <mxCell id="DaA-IUwwJyqMWV8Ne91E-1" value="Embedding" style="rounded=0;whiteSpace=wrap;html=1;fontStyle=1;fontSize=18;fillColor=#008a00;fontColor=#ffffff;strokeColor=#005700;" parent="1" vertex="1">
          <mxGeometry x="40" y="320" width="120" height="300" as="geometry" />
        </mxCell>
        <mxCell id="DaA-IUwwJyqMWV8Ne91E-2" value="0.22" style="rounded=0;whiteSpace=wrap;html=1;fontSize=18;fontStyle=1;fillColor=#008a00;strokeColor=none;fontColor=#ffffff;" parent="1" vertex="1">
          <mxGeometry x="160" y="320" width="40" height="60" as="geometry" />
        </mxCell>
        <mxCell id="DaA-IUwwJyqMWV8Ne91E-4" value="-0.43" style="rounded=0;whiteSpace=wrap;html=1;fontSize=18;fontStyle=1;fillColor=#008a00;strokeColor=none;fontColor=#ffffff;" parent="1" vertex="1">
          <mxGeometry x="160" y="380" width="40" height="60" as="geometry" />
        </mxCell>
        <mxCell id="DaA-IUwwJyqMWV8Ne91E-5" value="..." style="rounded=0;whiteSpace=wrap;html=1;fontSize=18;fontStyle=1;fillColor=#008a00;strokeColor=none;fontColor=#ffffff;" parent="1" vertex="1">
          <mxGeometry x="160" y="440" width="40" height="60" as="geometry" />
        </mxCell>
        <mxCell id="DaA-IUwwJyqMWV8Ne91E-6" value="..." style="rounded=0;whiteSpace=wrap;html=1;fontSize=18;fontStyle=1;fillColor=#008a00;strokeColor=none;fontColor=#ffffff;" parent="1" vertex="1">
          <mxGeometry x="160" y="500" width="40" height="60" as="geometry" />
        </mxCell>
        <mxCell id="DaA-IUwwJyqMWV8Ne91E-7" value="..." style="rounded=0;whiteSpace=wrap;html=1;fontSize=18;fontStyle=1;fillColor=#008a00;strokeColor=none;fontColor=#ffffff;" parent="1" vertex="1">
          <mxGeometry x="160" y="560" width="40" height="60" as="geometry" />
        </mxCell>
        <mxCell id="DaA-IUwwJyqMWV8Ne91E-8" value="0.83" style="rounded=0;whiteSpace=wrap;html=1;fontSize=18;fontStyle=1;fillColor=#008a00;strokeColor=none;fontColor=#ffffff;" parent="1" vertex="1">
          <mxGeometry x="200" y="320" width="40" height="60" as="geometry" />
        </mxCell>
        <mxCell id="DaA-IUwwJyqMWV8Ne91E-9" value="-0.91" style="rounded=0;whiteSpace=wrap;html=1;fontSize=18;fontStyle=1;fillColor=#008a00;strokeColor=none;fontColor=#ffffff;" parent="1" vertex="1">
          <mxGeometry x="200" y="380" width="40" height="60" as="geometry" />
        </mxCell>
        <mxCell id="DaA-IUwwJyqMWV8Ne91E-10" value="..." style="rounded=0;whiteSpace=wrap;html=1;fontSize=18;fontStyle=1;fillColor=#008a00;strokeColor=none;fontColor=#ffffff;" parent="1" vertex="1">
          <mxGeometry x="200" y="440" width="40" height="60" as="geometry" />
        </mxCell>
        <mxCell id="DaA-IUwwJyqMWV8Ne91E-11" value="..." style="rounded=0;whiteSpace=wrap;html=1;fontSize=18;fontStyle=1;fillColor=#008a00;strokeColor=none;fontColor=#ffffff;" parent="1" vertex="1">
          <mxGeometry x="200" y="500" width="40" height="60" as="geometry" />
        </mxCell>
        <mxCell id="DaA-IUwwJyqMWV8Ne91E-12" value="..." style="rounded=0;whiteSpace=wrap;html=1;fontSize=18;fontStyle=1;fillColor=#008a00;strokeColor=none;fontColor=#ffffff;" parent="1" vertex="1">
          <mxGeometry x="200" y="560" width="40" height="60" as="geometry" />
        </mxCell>
        <mxCell id="DaA-IUwwJyqMWV8Ne91E-13" value="-0.11" style="rounded=0;whiteSpace=wrap;html=1;fontSize=18;fontStyle=1;fillColor=#008a00;strokeColor=none;fontColor=#ffffff;" parent="1" vertex="1">
          <mxGeometry x="240" y="320" width="40" height="60" as="geometry" />
        </mxCell>
        <mxCell id="DaA-IUwwJyqMWV8Ne91E-14" value="0.74" style="rounded=0;whiteSpace=wrap;html=1;fontSize=18;fontStyle=1;fillColor=#008a00;strokeColor=none;fontColor=#ffffff;" parent="1" vertex="1">
          <mxGeometry x="240" y="380" width="40" height="60" as="geometry" />
        </mxCell>
        <mxCell id="DaA-IUwwJyqMWV8Ne91E-15" value="..." style="rounded=0;whiteSpace=wrap;html=1;fontSize=18;fontStyle=1;fillColor=#008a00;strokeColor=none;fontColor=#ffffff;" parent="1" vertex="1">
          <mxGeometry x="240" y="440" width="40" height="60" as="geometry" />
        </mxCell>
        <mxCell id="DaA-IUwwJyqMWV8Ne91E-16" value="..." style="rounded=0;whiteSpace=wrap;html=1;fontSize=18;fontStyle=1;fillColor=#008a00;strokeColor=none;fontColor=#ffffff;" parent="1" vertex="1">
          <mxGeometry x="240" y="500" width="40" height="60" as="geometry" />
        </mxCell>
        <mxCell id="DaA-IUwwJyqMWV8Ne91E-17" value="..." style="rounded=0;whiteSpace=wrap;html=1;fontSize=18;fontStyle=1;fillColor=#008a00;strokeColor=none;fontColor=#ffffff;" parent="1" vertex="1">
          <mxGeometry x="240" y="560" width="40" height="60" as="geometry" />
        </mxCell>
        <mxCell id="DaA-IUwwJyqMWV8Ne91E-18" value=".." style="rounded=0;whiteSpace=wrap;html=1;fontSize=18;fontStyle=1;fillColor=#008a00;strokeColor=none;fontColor=#ffffff;" parent="1" vertex="1">
          <mxGeometry x="280" y="320" width="40" height="60" as="geometry" />
        </mxCell>
        <mxCell id="DaA-IUwwJyqMWV8Ne91E-19" value=".." style="rounded=0;whiteSpace=wrap;html=1;fontSize=18;fontStyle=1;fillColor=#008a00;strokeColor=none;fontColor=#ffffff;" parent="1" vertex="1">
          <mxGeometry x="280" y="380" width="40" height="60" as="geometry" />
        </mxCell>
        <mxCell id="DaA-IUwwJyqMWV8Ne91E-20" value="..." style="rounded=0;whiteSpace=wrap;html=1;fontSize=18;fontStyle=1;fillColor=#008a00;strokeColor=none;fontColor=#ffffff;" parent="1" vertex="1">
          <mxGeometry x="280" y="440" width="40" height="60" as="geometry" />
        </mxCell>
        <mxCell id="DaA-IUwwJyqMWV8Ne91E-21" value="..." style="rounded=0;whiteSpace=wrap;html=1;fontSize=18;fontStyle=1;fillColor=#008a00;strokeColor=none;fontColor=#ffffff;" parent="1" vertex="1">
          <mxGeometry x="280" y="500" width="40" height="60" as="geometry" />
        </mxCell>
        <mxCell id="DaA-IUwwJyqMWV8Ne91E-22" value="..." style="rounded=0;whiteSpace=wrap;html=1;fontSize=18;fontStyle=1;fillColor=#008a00;strokeColor=none;fontColor=#ffffff;" parent="1" vertex="1">
          <mxGeometry x="280" y="560" width="40" height="60" as="geometry" />
        </mxCell>
        <mxCell id="DaA-IUwwJyqMWV8Ne91E-33" value=".." style="rounded=0;whiteSpace=wrap;html=1;fontSize=18;fontStyle=1;fillColor=#008a00;strokeColor=none;fontColor=#ffffff;" parent="1" vertex="1">
          <mxGeometry x="320" y="320" width="40" height="60" as="geometry" />
        </mxCell>
        <mxCell id="DaA-IUwwJyqMWV8Ne91E-34" value=".." style="rounded=0;whiteSpace=wrap;html=1;fontSize=18;fontStyle=1;fillColor=#008a00;strokeColor=none;fontColor=#ffffff;" parent="1" vertex="1">
          <mxGeometry x="320" y="380" width="40" height="60" as="geometry" />
        </mxCell>
        <mxCell id="DaA-IUwwJyqMWV8Ne91E-35" value="..." style="rounded=0;whiteSpace=wrap;html=1;fontSize=18;fontStyle=1;fillColor=#008a00;strokeColor=none;fontColor=#ffffff;" parent="1" vertex="1">
          <mxGeometry x="320" y="440" width="40" height="60" as="geometry" />
        </mxCell>
        <mxCell id="DaA-IUwwJyqMWV8Ne91E-36" value="..." style="rounded=0;whiteSpace=wrap;html=1;fontSize=18;fontStyle=1;fillColor=#008a00;strokeColor=none;fontColor=#ffffff;" parent="1" vertex="1">
          <mxGeometry x="320" y="500" width="40" height="60" as="geometry" />
        </mxCell>
        <mxCell id="DaA-IUwwJyqMWV8Ne91E-37" value="..." style="rounded=0;whiteSpace=wrap;html=1;fontSize=18;fontStyle=1;fillColor=#008a00;strokeColor=none;fontColor=#ffffff;" parent="1" vertex="1">
          <mxGeometry x="320" y="560" width="40" height="60" as="geometry" />
        </mxCell>
        <mxCell id="DaA-IUwwJyqMWV8Ne91E-38" value=".." style="rounded=0;whiteSpace=wrap;html=1;fontSize=18;fontStyle=1;fillColor=#008a00;strokeColor=none;fontColor=#ffffff;" parent="1" vertex="1">
          <mxGeometry x="360" y="320" width="40" height="60" as="geometry" />
        </mxCell>
        <mxCell id="DaA-IUwwJyqMWV8Ne91E-39" value=".." style="rounded=0;whiteSpace=wrap;html=1;fontSize=18;fontStyle=1;fillColor=#008a00;strokeColor=none;fontColor=#ffffff;" parent="1" vertex="1">
          <mxGeometry x="360" y="380" width="40" height="60" as="geometry" />
        </mxCell>
        <mxCell id="DaA-IUwwJyqMWV8Ne91E-40" value="..." style="rounded=0;whiteSpace=wrap;html=1;fontSize=18;fontStyle=1;fillColor=#008a00;strokeColor=none;fontColor=#ffffff;" parent="1" vertex="1">
          <mxGeometry x="360" y="440" width="40" height="60" as="geometry" />
        </mxCell>
        <mxCell id="DaA-IUwwJyqMWV8Ne91E-41" value="..." style="rounded=0;whiteSpace=wrap;html=1;fontSize=18;fontStyle=1;fillColor=#008a00;strokeColor=none;fontColor=#ffffff;" parent="1" vertex="1">
          <mxGeometry x="360" y="500" width="40" height="60" as="geometry" />
        </mxCell>
        <mxCell id="DaA-IUwwJyqMWV8Ne91E-42" value="..." style="rounded=0;whiteSpace=wrap;html=1;fontSize=18;fontStyle=1;fillColor=#008a00;strokeColor=none;fontColor=#ffffff;" parent="1" vertex="1">
          <mxGeometry x="360" y="560" width="40" height="60" as="geometry" />
        </mxCell>
        <mxCell id="DaA-IUwwJyqMWV8Ne91E-43" value=".." style="rounded=0;whiteSpace=wrap;html=1;fontSize=18;fontStyle=1;fillColor=#008a00;strokeColor=none;fontColor=#ffffff;" parent="1" vertex="1">
          <mxGeometry x="400" y="320" width="40" height="60" as="geometry" />
        </mxCell>
        <mxCell id="DaA-IUwwJyqMWV8Ne91E-44" value=".." style="rounded=0;whiteSpace=wrap;html=1;fontSize=18;fontStyle=1;fillColor=#008a00;strokeColor=none;fontColor=#ffffff;" parent="1" vertex="1">
          <mxGeometry x="400" y="380" width="40" height="60" as="geometry" />
        </mxCell>
        <mxCell id="DaA-IUwwJyqMWV8Ne91E-45" value="..." style="rounded=0;whiteSpace=wrap;html=1;fontSize=18;fontStyle=1;fillColor=#008a00;strokeColor=none;fontColor=#ffffff;" parent="1" vertex="1">
          <mxGeometry x="400" y="440" width="40" height="60" as="geometry" />
        </mxCell>
        <mxCell id="DaA-IUwwJyqMWV8Ne91E-46" value="..." style="rounded=0;whiteSpace=wrap;html=1;fontSize=18;fontStyle=1;fillColor=#008a00;strokeColor=none;fontColor=#ffffff;" parent="1" vertex="1">
          <mxGeometry x="400" y="500" width="40" height="60" as="geometry" />
        </mxCell>
        <mxCell id="DaA-IUwwJyqMWV8Ne91E-47" value="..." style="rounded=0;whiteSpace=wrap;html=1;fontSize=18;fontStyle=1;fillColor=#008a00;strokeColor=none;fontColor=#ffffff;" parent="1" vertex="1">
          <mxGeometry x="400" y="560" width="40" height="60" as="geometry" />
        </mxCell>
        <mxCell id="DaA-IUwwJyqMWV8Ne91E-48" value=".." style="rounded=0;whiteSpace=wrap;html=1;fontSize=18;fontStyle=1;fillColor=#008a00;strokeColor=none;fontColor=#ffffff;" parent="1" vertex="1">
          <mxGeometry x="440" y="320" width="40" height="60" as="geometry" />
        </mxCell>
        <mxCell id="DaA-IUwwJyqMWV8Ne91E-49" value=".." style="rounded=0;whiteSpace=wrap;html=1;fontSize=18;fontStyle=1;fillColor=#008a00;strokeColor=none;fontColor=#ffffff;" parent="1" vertex="1">
          <mxGeometry x="440" y="380" width="40" height="60" as="geometry" />
        </mxCell>
        <mxCell id="DaA-IUwwJyqMWV8Ne91E-50" value="..." style="rounded=0;whiteSpace=wrap;html=1;fontSize=18;fontStyle=1;fillColor=#008a00;strokeColor=none;fontColor=#ffffff;" parent="1" vertex="1">
          <mxGeometry x="440" y="440" width="40" height="60" as="geometry" />
        </mxCell>
        <mxCell id="DaA-IUwwJyqMWV8Ne91E-51" value="..." style="rounded=0;whiteSpace=wrap;html=1;fontSize=18;fontStyle=1;fillColor=#008a00;strokeColor=none;fontColor=#ffffff;" parent="1" vertex="1">
          <mxGeometry x="440" y="500" width="40" height="60" as="geometry" />
        </mxCell>
        <mxCell id="DaA-IUwwJyqMWV8Ne91E-52" value="..." style="rounded=0;whiteSpace=wrap;html=1;fontSize=18;fontStyle=1;fillColor=#008a00;strokeColor=none;fontColor=#ffffff;" parent="1" vertex="1">
          <mxGeometry x="440" y="560" width="40" height="60" as="geometry" />
        </mxCell>
        <mxCell id="DaA-IUwwJyqMWV8Ne91E-63" value=".." style="rounded=0;whiteSpace=wrap;html=1;fontSize=18;fontStyle=1;fillColor=#008a00;strokeColor=none;fontColor=#ffffff;" parent="1" vertex="1">
          <mxGeometry x="480" y="320" width="40" height="60" as="geometry" />
        </mxCell>
        <mxCell id="DaA-IUwwJyqMWV8Ne91E-64" value=".." style="rounded=0;whiteSpace=wrap;html=1;fontSize=18;fontStyle=1;fillColor=#008a00;strokeColor=none;fontColor=#ffffff;" parent="1" vertex="1">
          <mxGeometry x="480" y="380" width="40" height="60" as="geometry" />
        </mxCell>
        <mxCell id="DaA-IUwwJyqMWV8Ne91E-65" value="..." style="rounded=0;whiteSpace=wrap;html=1;fontSize=18;fontStyle=1;fillColor=#008a00;strokeColor=none;fontColor=#ffffff;" parent="1" vertex="1">
          <mxGeometry x="480" y="440" width="40" height="60" as="geometry" />
        </mxCell>
        <mxCell id="DaA-IUwwJyqMWV8Ne91E-66" value="..." style="rounded=0;whiteSpace=wrap;html=1;fontSize=18;fontStyle=1;fillColor=#008a00;strokeColor=none;fontColor=#ffffff;" parent="1" vertex="1">
          <mxGeometry x="480" y="500" width="40" height="60" as="geometry" />
        </mxCell>
        <mxCell id="DaA-IUwwJyqMWV8Ne91E-67" value="..." style="rounded=0;whiteSpace=wrap;html=1;fontSize=18;fontStyle=1;fillColor=#008a00;strokeColor=none;fontColor=#ffffff;" parent="1" vertex="1">
          <mxGeometry x="480" y="560" width="40" height="60" as="geometry" />
        </mxCell>
        <mxCell id="DaA-IUwwJyqMWV8Ne91E-68" value=".." style="rounded=0;whiteSpace=wrap;html=1;fontSize=18;fontStyle=1;fillColor=#008a00;strokeColor=none;fontColor=#ffffff;" parent="1" vertex="1">
          <mxGeometry x="520" y="320" width="40" height="60" as="geometry" />
        </mxCell>
        <mxCell id="DaA-IUwwJyqMWV8Ne91E-69" value=".." style="rounded=0;whiteSpace=wrap;html=1;fontSize=18;fontStyle=1;fillColor=#008a00;strokeColor=none;fontColor=#ffffff;" parent="1" vertex="1">
          <mxGeometry x="520" y="380" width="40" height="60" as="geometry" />
        </mxCell>
        <mxCell id="DaA-IUwwJyqMWV8Ne91E-70" value="..." style="rounded=0;whiteSpace=wrap;html=1;fontSize=18;fontStyle=1;fillColor=#008a00;strokeColor=none;fontColor=#ffffff;" parent="1" vertex="1">
          <mxGeometry x="520" y="440" width="40" height="60" as="geometry" />
        </mxCell>
        <mxCell id="DaA-IUwwJyqMWV8Ne91E-71" value="..." style="rounded=0;whiteSpace=wrap;html=1;fontSize=18;fontStyle=1;fillColor=#008a00;strokeColor=none;fontColor=#ffffff;" parent="1" vertex="1">
          <mxGeometry x="520" y="500" width="40" height="60" as="geometry" />
        </mxCell>
        <mxCell id="DaA-IUwwJyqMWV8Ne91E-72" value="..." style="rounded=0;whiteSpace=wrap;html=1;fontSize=18;fontStyle=1;fillColor=#008a00;strokeColor=none;fontColor=#ffffff;" parent="1" vertex="1">
          <mxGeometry x="520" y="560" width="40" height="60" as="geometry" />
        </mxCell>
        <mxCell id="DaA-IUwwJyqMWV8Ne91E-73" value=".." style="rounded=0;whiteSpace=wrap;html=1;fontSize=18;fontStyle=1;fillColor=#008a00;strokeColor=none;fontColor=#ffffff;" parent="1" vertex="1">
          <mxGeometry x="560" y="320" width="40" height="60" as="geometry" />
        </mxCell>
        <mxCell id="DaA-IUwwJyqMWV8Ne91E-74" value=".." style="rounded=0;whiteSpace=wrap;html=1;fontSize=18;fontStyle=1;fillColor=#008a00;strokeColor=none;fontColor=#ffffff;" parent="1" vertex="1">
          <mxGeometry x="560" y="380" width="40" height="60" as="geometry" />
        </mxCell>
        <mxCell id="DaA-IUwwJyqMWV8Ne91E-75" value="..." style="rounded=0;whiteSpace=wrap;html=1;fontSize=18;fontStyle=1;fillColor=#008a00;strokeColor=none;fontColor=#ffffff;" parent="1" vertex="1">
          <mxGeometry x="560" y="440" width="40" height="60" as="geometry" />
        </mxCell>
        <mxCell id="DaA-IUwwJyqMWV8Ne91E-76" value="..." style="rounded=0;whiteSpace=wrap;html=1;fontSize=18;fontStyle=1;fillColor=#008a00;strokeColor=none;fontColor=#ffffff;" parent="1" vertex="1">
          <mxGeometry x="560" y="500" width="40" height="60" as="geometry" />
        </mxCell>
        <mxCell id="DaA-IUwwJyqMWV8Ne91E-77" value="..." style="rounded=0;whiteSpace=wrap;html=1;fontSize=18;fontStyle=1;fillColor=#008a00;strokeColor=none;fontColor=#ffffff;" parent="1" vertex="1">
          <mxGeometry x="560" y="560" width="40" height="60" as="geometry" />
        </mxCell>
        <mxCell id="DaA-IUwwJyqMWV8Ne91E-78" value=".." style="rounded=0;whiteSpace=wrap;html=1;fontSize=18;fontStyle=1;fillColor=#008a00;strokeColor=none;fontColor=#ffffff;" parent="1" vertex="1">
          <mxGeometry x="600" y="320" width="40" height="60" as="geometry" />
        </mxCell>
        <mxCell id="DaA-IUwwJyqMWV8Ne91E-79" value=".." style="rounded=0;whiteSpace=wrap;html=1;fontSize=18;fontStyle=1;fillColor=#008a00;strokeColor=none;fontColor=#ffffff;" parent="1" vertex="1">
          <mxGeometry x="600" y="380" width="40" height="60" as="geometry" />
        </mxCell>
        <mxCell id="DaA-IUwwJyqMWV8Ne91E-80" value="..." style="rounded=0;whiteSpace=wrap;html=1;fontSize=18;fontStyle=1;fillColor=#008a00;strokeColor=none;fontColor=#ffffff;" parent="1" vertex="1">
          <mxGeometry x="600" y="440" width="40" height="60" as="geometry" />
        </mxCell>
        <mxCell id="DaA-IUwwJyqMWV8Ne91E-81" value="..." style="rounded=0;whiteSpace=wrap;html=1;fontSize=18;fontStyle=1;fillColor=#008a00;strokeColor=none;fontColor=#ffffff;" parent="1" vertex="1">
          <mxGeometry x="600" y="500" width="40" height="60" as="geometry" />
        </mxCell>
        <mxCell id="DaA-IUwwJyqMWV8Ne91E-82" value="..." style="rounded=0;whiteSpace=wrap;html=1;fontSize=18;fontStyle=1;fillColor=#008a00;strokeColor=none;fontColor=#ffffff;" parent="1" vertex="1">
          <mxGeometry x="600" y="560" width="40" height="60" as="geometry" />
        </mxCell>
        <mxCell id="DaA-IUwwJyqMWV8Ne91E-83" value=".." style="rounded=0;whiteSpace=wrap;html=1;fontSize=18;fontStyle=1;fillColor=#008a00;strokeColor=none;fontColor=#ffffff;" parent="1" vertex="1">
          <mxGeometry x="640" y="320" width="40" height="60" as="geometry" />
        </mxCell>
        <mxCell id="DaA-IUwwJyqMWV8Ne91E-84" value=".." style="rounded=0;whiteSpace=wrap;html=1;fontSize=18;fontStyle=1;fillColor=#008a00;strokeColor=none;fontColor=#ffffff;" parent="1" vertex="1">
          <mxGeometry x="640" y="380" width="40" height="60" as="geometry" />
        </mxCell>
        <mxCell id="DaA-IUwwJyqMWV8Ne91E-85" value="..." style="rounded=0;whiteSpace=wrap;html=1;fontSize=18;fontStyle=1;fillColor=#008a00;strokeColor=none;fontColor=#ffffff;" parent="1" vertex="1">
          <mxGeometry x="640" y="440" width="40" height="60" as="geometry" />
        </mxCell>
        <mxCell id="DaA-IUwwJyqMWV8Ne91E-86" value="..." style="rounded=0;whiteSpace=wrap;html=1;fontSize=18;fontStyle=1;fillColor=#008a00;strokeColor=none;fontColor=#ffffff;" parent="1" vertex="1">
          <mxGeometry x="640" y="500" width="40" height="60" as="geometry" />
        </mxCell>
        <mxCell id="DaA-IUwwJyqMWV8Ne91E-87" value="..." style="rounded=0;whiteSpace=wrap;html=1;fontSize=18;fontStyle=1;fillColor=#008a00;strokeColor=none;fontColor=#ffffff;" parent="1" vertex="1">
          <mxGeometry x="640" y="560" width="40" height="60" as="geometry" />
        </mxCell>
        <mxCell id="DaA-IUwwJyqMWV8Ne91E-88" value=".." style="rounded=0;whiteSpace=wrap;html=1;fontSize=18;fontStyle=1;fillColor=#008a00;strokeColor=none;fontColor=#ffffff;" parent="1" vertex="1">
          <mxGeometry x="680" y="320" width="40" height="60" as="geometry" />
        </mxCell>
        <mxCell id="DaA-IUwwJyqMWV8Ne91E-89" value=".." style="rounded=0;whiteSpace=wrap;html=1;fontSize=18;fontStyle=1;fillColor=#008a00;strokeColor=none;fontColor=#ffffff;" parent="1" vertex="1">
          <mxGeometry x="680" y="380" width="40" height="60" as="geometry" />
        </mxCell>
        <mxCell id="DaA-IUwwJyqMWV8Ne91E-90" value="..." style="rounded=0;whiteSpace=wrap;html=1;fontSize=18;fontStyle=1;fillColor=#008a00;strokeColor=none;fontColor=#ffffff;" parent="1" vertex="1">
          <mxGeometry x="680" y="440" width="40" height="60" as="geometry" />
        </mxCell>
        <mxCell id="DaA-IUwwJyqMWV8Ne91E-91" value="..." style="rounded=0;whiteSpace=wrap;html=1;fontSize=18;fontStyle=1;fillColor=#008a00;strokeColor=none;fontColor=#ffffff;" parent="1" vertex="1">
          <mxGeometry x="680" y="500" width="40" height="60" as="geometry" />
        </mxCell>
        <mxCell id="DaA-IUwwJyqMWV8Ne91E-92" value="..." style="rounded=0;whiteSpace=wrap;html=1;fontSize=18;fontStyle=1;fillColor=#008a00;strokeColor=none;fontColor=#ffffff;" parent="1" vertex="1">
          <mxGeometry x="680" y="560" width="40" height="60" as="geometry" />
        </mxCell>
        <mxCell id="DaA-IUwwJyqMWV8Ne91E-93" value="" style="endArrow=none;html=1;rounded=0;entryX=0;entryY=0;entryDx=0;entryDy=0;exitX=0;exitY=1;exitDx=0;exitDy=0;" parent="1" source="DaA-IUwwJyqMWV8Ne91E-7" target="DaA-IUwwJyqMWV8Ne91E-2" edge="1">
          <mxGeometry width="50" height="50" relative="1" as="geometry">
            <mxPoint x="155" y="620" as="sourcePoint" />
            <mxPoint x="205" y="570" as="targetPoint" />
          </mxGeometry>
        </mxCell>
        <mxCell id="DaA-IUwwJyqMWV8Ne91E-94" value="" style="endArrow=none;html=1;rounded=0;entryX=0;entryY=0;entryDx=0;entryDy=0;exitX=0;exitY=1;exitDx=0;exitDy=0;" parent="1" edge="1">
          <mxGeometry width="50" height="50" relative="1" as="geometry">
            <mxPoint x="200" y="620" as="sourcePoint" />
            <mxPoint x="200" y="320" as="targetPoint" />
          </mxGeometry>
        </mxCell>
        <mxCell id="DaA-IUwwJyqMWV8Ne91E-95" value="" style="endArrow=none;html=1;rounded=0;entryX=0;entryY=0;entryDx=0;entryDy=0;exitX=0;exitY=1;exitDx=0;exitDy=0;" parent="1" edge="1">
          <mxGeometry width="50" height="50" relative="1" as="geometry">
            <mxPoint x="240" y="620" as="sourcePoint" />
            <mxPoint x="240" y="320" as="targetPoint" />
          </mxGeometry>
        </mxCell>
        <mxCell id="DaA-IUwwJyqMWV8Ne91E-96" value="" style="endArrow=none;html=1;rounded=0;entryX=0;entryY=0;entryDx=0;entryDy=0;exitX=0;exitY=1;exitDx=0;exitDy=0;" parent="1" edge="1">
          <mxGeometry width="50" height="50" relative="1" as="geometry">
            <mxPoint x="280" y="620" as="sourcePoint" />
            <mxPoint x="280" y="320" as="targetPoint" />
          </mxGeometry>
        </mxCell>
        <mxCell id="DaA-IUwwJyqMWV8Ne91E-97" value="" style="endArrow=none;html=1;rounded=0;entryX=0;entryY=0;entryDx=0;entryDy=0;exitX=0;exitY=1;exitDx=0;exitDy=0;" parent="1" edge="1">
          <mxGeometry width="50" height="50" relative="1" as="geometry">
            <mxPoint x="320" y="620" as="sourcePoint" />
            <mxPoint x="320" y="320" as="targetPoint" />
          </mxGeometry>
        </mxCell>
        <mxCell id="DaA-IUwwJyqMWV8Ne91E-98" value="" style="endArrow=none;html=1;rounded=0;entryX=0;entryY=0;entryDx=0;entryDy=0;exitX=0;exitY=1;exitDx=0;exitDy=0;" parent="1" edge="1">
          <mxGeometry width="50" height="50" relative="1" as="geometry">
            <mxPoint x="359.31" y="620" as="sourcePoint" />
            <mxPoint x="359.31" y="320" as="targetPoint" />
          </mxGeometry>
        </mxCell>
        <mxCell id="DaA-IUwwJyqMWV8Ne91E-99" value="" style="endArrow=none;html=1;rounded=0;entryX=0;entryY=0;entryDx=0;entryDy=0;exitX=0;exitY=1;exitDx=0;exitDy=0;" parent="1" edge="1">
          <mxGeometry width="50" height="50" relative="1" as="geometry">
            <mxPoint x="400" y="620" as="sourcePoint" />
            <mxPoint x="400" y="320" as="targetPoint" />
          </mxGeometry>
        </mxCell>
        <mxCell id="DaA-IUwwJyqMWV8Ne91E-100" value="" style="endArrow=none;html=1;rounded=0;entryX=0;entryY=0;entryDx=0;entryDy=0;exitX=0;exitY=1;exitDx=0;exitDy=0;" parent="1" edge="1">
          <mxGeometry width="50" height="50" relative="1" as="geometry">
            <mxPoint x="439.66" y="620" as="sourcePoint" />
            <mxPoint x="439.66" y="320" as="targetPoint" />
          </mxGeometry>
        </mxCell>
        <mxCell id="DaA-IUwwJyqMWV8Ne91E-101" value="" style="endArrow=none;html=1;rounded=0;entryX=0;entryY=0;entryDx=0;entryDy=0;exitX=0;exitY=1;exitDx=0;exitDy=0;" parent="1" edge="1">
          <mxGeometry width="50" height="50" relative="1" as="geometry">
            <mxPoint x="480" y="620" as="sourcePoint" />
            <mxPoint x="480" y="320" as="targetPoint" />
          </mxGeometry>
        </mxCell>
        <mxCell id="DaA-IUwwJyqMWV8Ne91E-102" value="" style="endArrow=none;html=1;rounded=0;entryX=0;entryY=0;entryDx=0;entryDy=0;exitX=0;exitY=1;exitDx=0;exitDy=0;" parent="1" edge="1">
          <mxGeometry width="50" height="50" relative="1" as="geometry">
            <mxPoint x="520" y="620" as="sourcePoint" />
            <mxPoint x="520" y="320" as="targetPoint" />
          </mxGeometry>
        </mxCell>
        <mxCell id="DaA-IUwwJyqMWV8Ne91E-103" value="" style="endArrow=none;html=1;rounded=0;entryX=0;entryY=0;entryDx=0;entryDy=0;exitX=0;exitY=1;exitDx=0;exitDy=0;" parent="1" edge="1">
          <mxGeometry width="50" height="50" relative="1" as="geometry">
            <mxPoint x="560" y="620" as="sourcePoint" />
            <mxPoint x="560" y="320" as="targetPoint" />
          </mxGeometry>
        </mxCell>
        <mxCell id="DaA-IUwwJyqMWV8Ne91E-104" value="" style="endArrow=none;html=1;rounded=0;entryX=0;entryY=0;entryDx=0;entryDy=0;exitX=0;exitY=1;exitDx=0;exitDy=0;" parent="1" edge="1">
          <mxGeometry width="50" height="50" relative="1" as="geometry">
            <mxPoint x="600" y="620" as="sourcePoint" />
            <mxPoint x="600" y="320" as="targetPoint" />
          </mxGeometry>
        </mxCell>
        <mxCell id="DaA-IUwwJyqMWV8Ne91E-105" value="" style="endArrow=none;html=1;rounded=0;entryX=0;entryY=0;entryDx=0;entryDy=0;exitX=0;exitY=1;exitDx=0;exitDy=0;" parent="1" edge="1">
          <mxGeometry width="50" height="50" relative="1" as="geometry">
            <mxPoint x="640" y="620" as="sourcePoint" />
            <mxPoint x="640" y="320" as="targetPoint" />
          </mxGeometry>
        </mxCell>
        <mxCell id="DaA-IUwwJyqMWV8Ne91E-106" value="" style="endArrow=none;html=1;rounded=0;entryX=0;entryY=0;entryDx=0;entryDy=0;exitX=0;exitY=1;exitDx=0;exitDy=0;" parent="1" edge="1">
          <mxGeometry width="50" height="50" relative="1" as="geometry">
            <mxPoint x="679.31" y="620" as="sourcePoint" />
            <mxPoint x="679.31" y="320" as="targetPoint" />
          </mxGeometry>
        </mxCell>
        <mxCell id="DaA-IUwwJyqMWV8Ne91E-107" value="" style="endArrow=none;html=1;rounded=0;entryX=0;entryY=0;entryDx=0;entryDy=0;exitX=0;exitY=1;exitDx=0;exitDy=0;" parent="1" edge="1">
          <mxGeometry width="50" height="50" relative="1" as="geometry">
            <mxPoint x="720" y="620" as="sourcePoint" />
            <mxPoint x="720" y="320" as="targetPoint" />
          </mxGeometry>
        </mxCell>
        <mxCell id="ot1SOyFsUFU0Zu_zQI1q-1" value="Context/Input Size" style="endArrow=classic;startArrow=classic;html=1;rounded=0;entryX=1;entryY=0;entryDx=0;entryDy=0;" edge="1" parent="1">
          <mxGeometry width="50" height="50" relative="1" as="geometry">
            <mxPoint x="160" y="180" as="sourcePoint" />
            <mxPoint x="720" y="180" as="targetPoint" />
          </mxGeometry>
        </mxCell>
        <mxCell id="ot1SOyFsUFU0Zu_zQI1q-3" value="Embedding Dimensions" style="endArrow=classic;startArrow=classic;html=1;rounded=0;" edge="1" parent="1">
          <mxGeometry width="50" height="50" relative="1" as="geometry">
            <mxPoint x="730" y="320" as="sourcePoint" />
            <mxPoint x="730" y="620" as="targetPoint" />
          </mxGeometry>
        </mxCell>
      </root>
    </mxGraphModel>
  </diagram>
</mxfile>
